<?xml version="1.0" encoding="UTF-8"?>
<svg width="32" height="32" viewBox="0 0 32 32" fill="none" xmlns="http://www.w3.org/2000/svg">
  <!-- Круг фона -->
  <circle cx="16" cy="16" r="16" fill="#4F46E5"/>
  
  <!-- Символ медицины -->
  <path d="M16 8C13.7909 8 12 9.79086 12 12V14H8V16H12V18H8V20H12V22C12 24.2091 13.7909 26 16 26C18.2091 26 20 24.2091 20 22V20H24V18H20V16H24V14H20V12C20 9.79086 18.2091 8 16 8Z" fill="white"/>
  
  <!-- Крест -->
  <path d="M16 12C14.8954 12 14 12.8954 14 14V22C14 23.1046 14.8954 24 16 24C17.1046 24 18 23.1046 18 22V14C18 12.8954 17.1046 12 16 12Z" fill="#4F46E5"/>
  <path d="M12 16C12 14.8954 12.8954 14 14 14H18C19.1046 14 20 14.8954 20 16C20 17.1046 19.1046 18 18 18H14C12.8954 18 12 17.1046 12 16Z" fill="#4F46E5"/>
</svg> 